<svg data-name="Capa 1" xmlns="http://www.w3.org/2000/svg" viewBox="0 0 307.7 271.2"><defs><clipPath id="a"><path d="M212.3 214.1h-64.9a1.7 1.7 0 01-1.6-2.1s4.2-12 5.4-16.1 3.5-14.5 3.5-14.5h50.6l8.8 30.3a1.9 1.9 0 01-1.8 2.4z" fill="none"/></clipPath><clipPath id="b"><rect x="212.3" y="129.6" width="85.9" height="6.05" rx="3" ry="3" fill="none"/></clipPath></defs><path d="M70.6 207c-2.5.1-5.1.1-7.1-1.5a4.1 4.1 0 01-1.6-3.2c0-1.9 1.5-2.8 2.9-3.5 6.2-3 13.4-2.9 20.3-2.9q88.4 1 176.8-1.7c5.1-.2 10.3-.3 15.1 1.2a44.6 44.6 0 019.3 4.7l14.6 8.8c3.4 1.8-6.2 3.2-9.7 3.3l-33.5 1.1c-2 .1-4.2.3-5.4 1.8s2.9 2.3 1.9 3.9-3.3 2.2-5.4 2.3a1113.3 1113.3 0 01-175.2-5" fill="#4ad295" opacity=".6"/><path d="M5.4 186.3L56 157.7l2.2-1.3a2.8 2.8 0 013.2 1.3c1 1.9 1 3.5 0 4.1L9.5 191.7s-8 1.9-8.3 1.3 4.2-6.7 4.2-6.7z" fill="#2bc48a" opacity=".56"/><path d="M67.9 172.9a8.6 8.6 0 008.6 8.6h207.1a8.6 8.6 0 008.6-8.6v-21.5l-224.3 2.7z" fill="#f8fafb"/><path d="M283.6 24.2s-27.7-.5-46.9-.4c-32.6.3-160.3.4-160.3.4-4.7 0-8.8 2.1-8.6 8.6 1.2 42.8.1 81.1.1 121.3 0 .2 80.5-.6 120.8 0 34.6.5 69 0 103.5 0 0 0-.5-90.5 0-121.3a8.6 8.6 0 00-8.6-8.6z" fill="#374957"/><path fill="#5f7d95" d="M81.5 37.3H282v105.01H81.5z"/><path d="M99.5 101.6a6.8 6.8 0 006.8 6.8h90.3a6.8 6.8 0 006.8-6.8V24.2H99.5z" fill="#374957" opacity=".37"/><rect x="209.3" y="44.6" width="56.3" height="57.42" rx="6.8" ry="6.8" fill="#374957" opacity=".37"/><path d="M180 142.3s93.9-78.8 102-99.5v99.5z" fill="#374957" opacity=".43"/><rect x="96.9" width="103.8" height="103.81" rx="6.8" ry="6.8" fill="#e2ffe2"/><path d="M292.1 114.3h-87a6.8 6.8 0 00-6.8 6.8v18a6.8 6.8 0 006.8 6.8h87z" fill="#374957" opacity=".37"/><rect x="212.3" y="42.8" width="54.1" height="56.01" rx="4.8" ry="4.8" fill="#fff"/><rect x="202.7" y="118.4" width="105" height="28.32" rx="3.5" ry="3.5" fill="#f8fafb"/><path d="M212.3 214.2h-65a1.7 1.7 0 01-1.6-2.1s3.9-10.7 4.9-14.4 4-16.2 4-16.2h50.6l8.8 30.3a1.9 1.9 0 01-1.7 2.4z" fill="#e3e9ed"/><g clip-path="url(#a)"><path fill="#cfd9e0" d="M148.8 178.3h60.5v14.19h-60.5z"/></g><path d="M4.2 184.6L54.7 156l2.2-1.3a2.8 2.8 0 013.2 1.3c1 1.9 1 3.5 0 4.1L8.3 190s-8 1.9-8.3 1.3 4.2-6.7 4.2-6.7z" fill="#5f5ff6"/><g clip-path="url(#b)"><path fill="#bac8d3" d="M212.3 129.6h.9v6.05h-.9z"/><path fill="#b9c7d2" d="M213.2 129.6h.9v6.05h-.9z"/><path fill="#b8c6d2" d="M214.2 129.6h.9v6.05h-.9z"/><path fill="#b7c6d1" d="M215.1 129.6h.9v6.05h-.9z"/><path fill="#b6c5d0" d="M216 129.6h.9v6.05h-.9z"/><path fill="#b5c4d0" d="M217 129.6h.9v6.05h-.9z"/><path fill="#b4c3cf" d="M217.9 129.6h.9v6.05h-.9z"/><path fill="#b3c2ce" d="M218.9 129.6h.9v6.05h-.9z"/><path fill="#b2c1cd" d="M219.8 129.6h.9v6.05h-.9z"/><path fill="#b1c1cd" d="M220.8 129.6h.9v6.05h-.9z"/><path fill="#b0c0cc" d="M221.7 129.6h.9v6.05h-.9z"/><path fill="#afbfcb" d="M222.7 129.6h.9v6.05h-.9z"/><path fill="#aebecb" d="M223.6 129.6h.9v6.05h-.9z"/><path fill="#adbdca" d="M224.5 129.6h.9v6.05h-.9z"/><path fill="#acbcc9" d="M225.5 129.6h.9v6.05h-.9z"/><path fill="#abbcc9" d="M226.4 129.6h.9v6.05h-.9z"/><path fill="#aabbc8" d="M227.4 129.6h.9v6.05h-.9z"/><path fill="#a9bac7" d="M228.3 129.6h.9v6.05h-.9z"/><path fill="#a8b9c7" d="M229.3 129.6h.9v6.05h-.9z"/><path fill="#a7b8c6" d="M230.2 129.6h.9v6.05h-.9z"/><path fill="#a6b7c5" d="M231.1 129.6h.9v6.05h-.9z"/><path fill="#a5b7c5" d="M232.1 129.6h.9v6.05h-.9z"/><path fill="#a4b6c4" d="M233 129.6h.9v6.05h-.9z"/><path fill="#a3b5c3" d="M234 129.6h.9v6.05h-.9z"/><path fill="#a2b4c2" d="M234.9 129.6h.9v6.05h-.9z"/><path fill="#a1b3c2" d="M235.9 129.6h.9v6.05h-.9z"/><path fill="#a0b2c1" d="M236.8 129.6h.9v6.05h-.9z"/><path fill="#9fb2c0" d="M237.8 129.6h.9v6.05h-.9z"/><path fill="#9eb1c0" d="M238.7 129.6h.9v6.05h-.9z"/><path fill="#9db0bf" d="M239.6 129.6h.9v6.05h-.9z"/><path fill="#9cafbe" d="M240.6 129.6h.9v6.05h-.9z"/><path fill="#9baebe" d="M241.5 129.6h.9v6.05h-.9z"/><path fill="#9aadbd" d="M242.5 129.6h.9v6.05h-.9z"/><path fill="#99adbc" d="M243.4 129.6h.9v6.05h-.9z"/><path fill="#98acbc" d="M244.4 129.6h.9v6.05h-.9z"/><path fill="#97abbb" d="M245.3 129.6h.9v6.05h-.9z"/><path fill="#96aaba" d="M246.3 129.6h.9v6.05h-.9z"/><path fill="#95a9ba" d="M247.2 129.6h.9v6.05h-.9z"/><path fill="#94a8b9" d="M248.1 129.6h.9v6.05h-.9z"/><path fill="#93a8b8" d="M249.1 129.6h.9v6.05h-.9z"/><path fill="#92a7b7" d="M250 129.6h.9v6.05h-.9z"/><path fill="#91a6b7" d="M251 129.6h.9v6.05h-.9z"/><path fill="#90a5b6" d="M251.9 129.6h.9v6.05h-.9z"/><path fill="#8fa4b5" d="M252.9 129.6h.9v6.05h-.9z"/><path fill="#8ea3b5" d="M253.8 129.6h.9v6.05h-.9z"/><path fill="#8da3b4" d="M254.8 129.6h.9v6.05h-.9z"/><path fill="#8ba2b3" d="M255.7 129.6h.9v6.05h-.9z"/><path fill="#8aa1b3" d="M256.6 129.6h.9v6.05h-.9z"/><path fill="#89a0b2" d="M257.6 129.6h.9v6.05h-.9z"/><path fill="#889fb1" d="M258.5 129.6h.9v6.05h-.9z"/><path fill="#879eb1" d="M259.5 129.6h.9v6.05h-.9z"/><path fill="#869eb0" d="M260.4 129.6h.9v6.05h-.9z"/><path fill="#859daf" d="M261.4 129.6h.9v6.05h-.9z"/><path fill="#849cae" d="M262.3 129.6h.9v6.05h-.9z"/><path fill="#839bae" d="M263.3 129.6h.9v6.05h-.9z"/><path fill="#829aad" d="M264.2 129.6h.9v6.05h-.9z"/><path fill="#8199ac" d="M265.1 129.6h.9v6.05h-.9z"/><path fill="#8099ac" d="M266.1 129.6h.9v6.05h-.9z"/><path fill="#7f98ab" d="M267 129.6h.9v6.05h-.9z"/><path fill="#7e97aa" d="M268 129.6h.9v6.05h-.9z"/><path fill="#7d96aa" d="M268.9 129.6h.9v6.05h-.9z"/><path fill="#7c95a9" d="M269.9 129.6h.9v6.05h-.9z"/><path fill="#7b94a8" d="M270.8 129.6h.9v6.05h-.9z"/><path fill="#7a94a8" d="M271.7 129.6h.9v6.05h-.9z"/><path fill="#7993a7" d="M272.7 129.6h.9v6.05h-.9z"/><path fill="#7892a6" d="M273.6 129.6h.9v6.05h-.9z"/><path fill="#7791a6" d="M274.6 129.6h.9v6.05h-.9z"/><path fill="#7690a5" d="M275.5 129.6h.9v6.05h-.9z"/><path fill="#758fa4" d="M276.5 129.6h.9v6.05h-.9z"/><path fill="#748fa3" d="M277.4 129.6h.9v6.05h-.9z"/><path fill="#738ea3" d="M278.4 129.6h.9v6.05h-.9z"/><path fill="#728da2" d="M279.3 129.6h.9v6.05h-.9z"/><path fill="#718ca1" d="M280.2 129.6h.9v6.05h-.9z"/><path fill="#708ba1" d="M281.2 129.6h.9v6.05h-.9z"/><path fill="#6f8aa0" d="M282.1 129.6h.9v6.05h-.9z"/><path fill="#6e8a9f" d="M283.1 129.6h.9v6.05h-.9z"/><path fill="#6d899f" d="M284 129.6h.9v6.05h-.9z"/><path fill="#6c889e" d="M285 129.6h.9v6.05h-.9z"/><path fill="#6b879d" d="M285.9 129.6h.9v6.05h-.9z"/><path fill="#6a869d" d="M286.9 129.6h.9v6.05h-.9z"/><path fill="#69859c" d="M287.8 129.6h.9v6.05h-.9z"/><path fill="#68859b" d="M288.7 129.6h.9v6.05h-.9z"/><path fill="#67849b" d="M289.7 129.6h.9v6.05h-.9z"/><path fill="#66839a" d="M290.6 129.6h.9v6.05h-.9z"/><path fill="#658299" d="M291.6 129.6h.9v6.05h-.9z"/><path fill="#648198" d="M292.5 129.6h.9v6.05h-.9z"/><path fill="#638098" d="M293.5 129.6h.9v6.05h-.9z"/><path fill="#628097" d="M294.4 129.6h.9v6.05h-.9z"/><path fill="#617f96" d="M295.4 129.6h.9v6.05h-.9z"/><path fill="#607e96" d="M296.3 129.6h.9v6.05h-.9z"/><path fill="#5f7d95" d="M297.2 129.6h.9v6.05h-.9z"/></g><circle cx="220.6" cy="132.5" r="5.4" fill="#5f7d95" opacity=".09"/><path d="M45.2 224.9a144.8 144.8 0 0117.3-7.2l8.4-2.9c2.8-1 5.7-1.7 8.2-3.3a.6.6 0 00-.6-1c-2.7 1.5-5.8 2.3-8.8 3.3l-8.7 3a124.6 124.6 0 00-16.5 7.1c-.7.4-.1 1.3.6 1z" fill="#bac8d3"/><path d="M70.6 210.8c11 7.7 22.4 14.9 33.7 22.1.7.4 1.3-.6.6-1.1-11.1-7.5-22.3-15.1-33.7-22.1-.7-.4-1.3.6-.6 1.1z" fill="#bac8d3"/><path d="M4.1 185.5c2.5-.1 3.3 2.1 3.8 4.2s1 .3.9-.3c-.3-2.4-2-5.4-4.8-4.8a.4.4 0 00.1.8zm-3.2 5.1h.2c.1.4.7.4.8 0a1 1 0 00-.8-1.2.4.4 0 00-.5.3.4.4 0 00.3.5z" fill="#3636cc"/><path d="M56.7 156.3a3.9 3.9 0 011.8 3.5" fill="#b3b3fc"/><path d="M56.3 157a3.2 3.2 0 011.3 2.8c0 1.2 1.7 1.1 1.8 0a4.7 4.7 0 00-2.3-4.2c-.9-.6-1.6.8-.8 1.4z" fill="#3636cc"/><path d="M18.6 226.8v6.1a2.2 2.2 0 001 1.9l53.3 33.9a16.2 16.2 0 0013.7 1.8l51.8-16.7h.3c.4-.1 2-.5 1.7-1.5a12.3 12.3 0 01-.6-2.1c0-.6.3-2.7 0-3.3a4 4 0 01-.3-2.7 2.6 2.6 0 000-2.1v-.2a2.2 2.2 0 00-2.6-1.7c-11.9 2.2-60 11.4-60.2 11.9S33.9 231 21.8 224.8a2.2 2.2 0 00-3.2 2z" fill="#2bc48a" opacity=".5"/><path d="M21.3 218.5l.3 11.6 60 38.2 58.5-18.8s2.1-.3 1.8-1.5a12.2 12.2 0 01-.6-2.1c0-.6.3-2.7 0-3.3a4 4 0 01-.3-2.7 2.5 2.5 0 000-2.1 5.9 5.9 0 010-2.4S79.2 247 78.9 247.6s-57.6-29.1-57.6-29.1z" fill="#cfd9e0"/><path d="M141.3 236.4l-59.8 19.4a1.5 1.5 0 01-1.3-.2l-58.9-37.1c-1.1-.7 0-.8 1.2-1.2l53.4-16.8a1.5 1.5 0 011.2.1l61.4 33.9c1.2.7 4.1 1.5 2.8 1.9z" fill="#fff"/><path d="M23.9 218.9c-1.2-.8-3.1-.4-4.3.1a7.1 7.1 0 00-3.8 3.8 6.9 6.9 0 000 5.5c.9 2 2.7 2.5 4.7 2.6s1.1-1.7 0-1.8-2.9-.6-3.2-2.4a5.4 5.4 0 01.8-3.9c1-1.5 3.4-3 5.3-2.4a.8.8 0 00.6-1.4z" fill="#5f7d95"/><path d="M28 221.7c-3.2-.4-6.8.4-8.1 3.7s-.2 7.3 3.6 6.6a.9.9 0 00-.2-1.7c-3.1.2-1.9-4.4-.6-5.6s3.5-1.4 5.4-1.2 1.1-1.6 0-1.7z" fill="#5f7d95"/><path d="M32.4 224.1c-3.1-.5-7.3 1.3-8.5 4.3a5.1 5.1 0 00.5 4.6c1 1.6 3.2 2 5 1.5s.7-2.1-.5-1.8-2.8-.1-3.1-1.5a3.5 3.5 0 01.6-3.2 8.5 8.5 0 015.9-2.2c.9.1 1.1-1.5.2-1.6z" fill="#5f7d95"/><path d="M36.3 226.8c-2.9-2-7.6.7-8.3 3.9-.3 1.6-.4 3.2.9 4.4a5 5 0 004.5 1.3c1-.3.8-1.9-.3-1.9a4 4 0 01-2.7-.7c-.9-.6-.8-1.9-.6-2.8s3.6-3.7 5.5-2.7a.8.8 0 00.8-1.4z" fill="#5f7d95"/><path d="M39.8 228.6c-3-1.7-5.9 1-7.1 3.7a7.5 7.5 0 00-.2 4.9c.5 1.4 2.3 1.6 3.6 1.7s1.3-1.7.3-1.9-1.6-.1-2-.6a4.8 4.8 0 01.2-3.4c.9-2 2.3-3.2 4.6-2.8s1.5-1 .6-1.5z" fill="#5f7d95"/><path d="M45 231.2c-3.6-.7-7.2.2-8.5 4-.5 1.5-.8 3.5 0 4.9a4.9 4.9 0 004.4 2.2c1-.1 1.3-1.6.2-1.8s-2.9-.3-3.1-2.1a6.4 6.4 0 01.5-3c1.1-2.6 3.8-2.7 6.3-2.5a.8.8 0 00.2-1.6z" fill="#5f7d95"/><path d="M48.8 234.1c-3.3-1-7.9.6-8.8 4.2a6.6 6.6 0 00.8 5.3 3.4 3.4 0 004.4 1.2c.9-.5.6-2-.5-1.8-3.1.5-3.9-2.8-2.4-5.1s4-2.2 6.1-2.1 1.4-1.3.4-1.6z" fill="#5f7d95"/><path d="M52.7 237a10.2 10.2 0 00-5.5.4 6.4 6.4 0 00-3.4 4.6 5 5 0 001.9 4.9c1.2.9 3.9 2.1 5.2.8a1 1 0 00-.9-1.6c-1.1.4-3.1-.7-3.7-1.6a3.4 3.4 0 010-3.6c1.3-2.3 3.8-2.4 6.2-2.3s1.1-1.5.2-1.6z" fill="#5f7d95"/><path d="M57.6 239.4c-4.1-2.1-8.4 0-10 4.2a5.3 5.3 0 00.7 5.3 4.3 4.3 0 005 1.2c1.1-.5.3-2.1-.8-1.9-3.4.7-3.7-3.2-2.5-5.2s4.2-3.3 6.9-2.1c.9.4 1.5-1.1.7-1.6z" fill="#5f7d95"/><path d="M61.9 241.1a7.8 7.8 0 00-9.3 3.4 7.5 7.5 0 00-.9 5.7 4.3 4.3 0 005.2 2.6 1.1 1.1 0 00-.6-2c-1.9.4-2.9-1.2-2.7-2.9a6.9 6.9 0 011.8-3.8 6.1 6.1 0 016.2-1.4.8.8 0 00.4-1.5z" fill="#5f7d95"/><path d="M64.8 245h.1a.9.9 0 00.1-1.1c-.9-1.7-4.3-1-5.6-.4a7.9 7.9 0 00-4.1 4.5 6.2 6.2 0 00.7 6.1 5.2 5.2 0 005.7 1.8c1-.4 1-2.1-.3-2.1s-2.7.1-3.7-1.1a4 4 0 01-.4-4 6.1 6.1 0 012.3-3c1-.7 3.1-1.3 4.3-.6l-.4-.7a.8.8 0 001.4.6z" fill="#5f7d95"/><path d="M68.5 247.5c-1.3-4-7.3-2-9.2.4a5 5 0 00-.8 5.5c.8 1.7 2.2 3.9 4.4 3.6s1.6-1.9.3-2.1a3.4 3.4 0 01-2.5-2.1 3 3 0 01.4-3.7c1-1.2 4.9-3.1 6-1a.8.8 0 001.5-.6z" fill="#5f7d95"/><path d="M71.6 249.3c-.8-1.7-3.5-1.5-5-1.3a6.3 6.3 0 00-4.6 3.1 6 6 0 00.1 5.4c1.1 1.8 3.3 2.2 5.2 1.9s.8-2-.3-2.1-2.5 0-3.1-1.1a3.8 3.8 0 01.2-3.3 4.4 4.4 0 012.6-1.7c.9-.2 2.9-.7 3.6.1s1.6-.2 1.3-1z" fill="#5f7d95"/><path d="M74.5 249.4a7.6 7.6 0 00-8.3 4.8c-.7 1.7-1 3.9.2 5.5s3.6 1.9 5.6 1.5.9-2.1-.3-2.1-3.7.1-3.9-1.9a6.2 6.2 0 011-3.5 6.6 6.6 0 015.4-2.7.9.9 0 00.2-1.7z" fill="#5f7d95"/><path d="M76.9 251.9c-2.9-.7-5.7 2.1-6.8 4.6a6.6 6.6 0 00.1 5.6c.8 1.4 2.4 2.8 4.1 2a1.1 1.1 0 00-.3-2c-4.6-.7-1-8.6 2.7-8.6a.8.8 0 00.2-1.6z" fill="#5f7d95"/><path d="M80.5 253.9c-.5-.7-1.3-.4-1.9-.3a7.7 7.7 0 00-3.4 2 8 8 0 00-2.1 7 6.1 6.1 0 003.1 4.4c1.2.6 3 1 4-.1a1.1 1.1 0 00-1.3-1.7c-1.4.7-3.1-1.6-3.4-2.8a5.8 5.8 0 011.1-4.9 7.5 7.5 0 011.8-1.5l1.4-.7c1-.5.1.1-.2-.1s1.5-.6 1-1.3z" fill="#5f7d95"/><path d="M70.6 242.1c6.2-2.2 12.4-4.5 18.5-7 2.8-1.1 5.5-2.5 8.3-3.7a71.7 71.7 0 019.8-3.3.6.6 0 00-.3-1.1 64.9 64.9 0 00-9.1 3.1c-3 1.3-5.9 2.8-8.9 4-6.1 2.4-12.3 4.8-18.5 7-.7.2-.4 1.4.3 1.1z" fill="#bac8d3"/><path d="M43.9 220.9a59.1 59.1 0 007.3 6.2c2.9 2.1 6 3.7 9 5.7s5.8 4.2 8.8 6.1a91.7 91.7 0 009.3 5.3c.9.4 1.6-.8.8-1.3-3-1.6-5.9-3.2-8.8-5.1s-5.8-4.1-8.8-6.1-5.8-3.4-8.6-5.3a64.9 64.9 0 01-8.1-6.4c-.6-.5-1.4.3-.9.9z" fill="#bac8d3"/><path d="M62 218.7c-3 1-3.6 4.4-1.7 6.7a7 7 0 004.8 2.3 12.6 12.6 0 005.8-.4c3.5-1.4 2.9-5.5.3-7.6a10.7 10.7 0 00-5.1-1.7 8.4 8.4 0 00-5.2.7c-.7.3-.2 1.5.5 1.2a10 10 0 016.7 0 4.5 4.5 0 013.2 2.3c.8 1.5.8 3-1 3.7a10.7 10.7 0 01-7.5-.4c-2.4-1.3-3.1-4.5-.3-5.8.6-.3.2-1.2-.4-1zm35.9 10.9c-2.9-2.5-6.9-3.3-10.6-3.7a34.3 34.3 0 00-12 .4c-3.2.8-7.2 2.5-8.4 5.9s1.6 5.9 4.7 6.8c1 .3 1.3-1.1.4-1.5s-2.9-1-3.6-2.4.4-3.8 1.9-4.9a17.3 17.3 0 018.9-2.9 34.7 34.7 0 0118 3.3c.6.3 1.2-.5.7-.9z" fill="#869fb2"/><path d="M81.4 257.7c5.1-1.9 10.4-3.5 15.6-5.2s10.7-3.7 16.1-5.3 10.3-3.3 15.4-5.1 9-2.9 13.1-5c1-.5.1-1.9-.9-1.5a269.2 269.2 0 01-29 10.1c-5.4 1.6-10.7 3.5-16.1 5.3s-10 3.2-14.9 5.2c-.8.3-.2 1.8.6 1.4zm.2 3.3a33.6 33.6 0 016.6-2.4l11.5-3.5c6.7-2 13.4-3.7 20-6s14.5-5.4 21.7-8a.8.8 0 00-.4-1.6c-6.7 1.8-13.1 4.7-19.7 7.1-3.1 1.1-6.3 2.1-9.4 3.1-7.7 2.3-15.5 4.5-23.2 7-2.6.8-5.6 1.5-7.9 2.9a.8.8 0 00.8 1.4zm1.6 4.3c10.9-4.4 22-7.9 33.1-11.7 8.4-2.9 16.8-5.8 25.4-8.1a.9.9 0 00-.5-1.6c-8.7 2.3-17.2 5.1-25.8 8-11 3.8-22.2 7.4-32.9 11.9-.9.4-.2 1.9.7 1.5zm.4 3.6c18.5-8.4 38.4-13.4 57.8-19.3a.9.9 0 00-.5-1.7c-19.6 5.6-39.7 10.7-58.2 19.5-1 .5-.1 1.9.9 1.5z" fill="#a5b7c6"/><path d="M252.5 57.6a18.6 18.6 0 00-13.1-5.4h-.1v18.5h.1z" fill="#fcbd24"/><path d="M239.3 70.7h-18.5a18.6 18.6 0 005.4 13.1l13.1-13.1z" fill="#4949e7"/><path d="M239.3 89.4V70.8l-13.1 13.1a18.6 18.6 0 0013.1 5.5z" fill="#1273eb"/><path fill="#2d2db0" d="M239.4 70.7h-.1v.1l.1-.1z"/><path d="M220.8 70.7h18.5l-13-13a18.6 18.6 0 00-5.5 13z" fill="#fb5252"/><path d="M226.3 57.6l13 13V52.2a18.6 18.6 0 00-13 5.4z" fill="#f69110"/><path d="M252.5 57.6l-13.1 13.1H258a18.6 18.6 0 00-5.5-13.1z" fill="#8df690"/><path d="M239.3 70.8v18.6h.1a18.6 18.6 0 0013.2-5.5l-13.2-13.2z" fill="#2c8cf4"/><path d="M258 70.7h-18.6l13.2 13.2a18.6 18.6 0 005.4-13.1z" fill="#4ad295"/><path d="M122.7 29.3a4.4 4.4 0 003.2 1.3c3.5-.1 5.2-4.1 4.2-7.2a4.4 4.4 0 00-7.2-1.7c-1.5 1.5-2.4 6.3-.2 7.6z" fill="#8df690"/><path d="M170.2 40.7c.2.1 1.3.2 1.6-.3a11.3 11.3 0 001.1-4.9 33 33 0 00.1-5.9 21.1 21.1 0 00-1.2-5.6c-.2-.4-2.3-4.7-2.7-4l-4 4.4-2.8 2.9h-3.1a.8.8 0 00-.9.7c-.2 2 .1 4 .1 5.9a1 1 0 001 1 14.7 14.7 0 003.3-.1 34.6 34.6 0 007.5 5.9z" fill="#69e781"/><path d="M174.6 33c-1.1.5-.6 2.2.5 1.8 3.5-1.5 2.8-7 .3-9.1a.8.8 0 00-1.1 1.1 5.2 5.2 0 011.4 3.1c-.1.9-.1 2.7-1.1 3.1z" fill="#4ad295"/><path d="M178.1 22c-.7-.6-2 .2-1.4 1.1s3 3.6 3 6.3-.6 4.7-2.9 6.1-.1 2.5 1 1.8c5.5-3.3 4.9-11.6.3-15.3z" fill="#4ad295"/><path d="M134.7 38.9c0-.1-.4-2.7-.4-2.8a7.7 7.7 0 00-3.4-4.4c-.1 0-.8-.5-1.2-.3a8.1 8.1 0 01-7.1.3 2.7 2.7 0 00-1.3-.2 6.6 6.6 0 00-3.7 4.1c-.4 1.1-.5 5.9.1 5.9l15.4-.3c1.1 0 1.4-.4 1.5-.8s.1-.9.1-1.5z" fill="#8df690"/><path d="M143.6 66.8l-.2-.2h-1.1a2.1 2.1 0 01-1.8-.6c-1.1-1.2.2-2.5 1-3.4l.3-.2a13.9 13.9 0 00-3.7-3.8.8.8 0 00-.4.4 3 3 0 01-1.4 1.4l-.7.2h-.6c-.4 0-1.5 0-1.8-.4s-.2-1.4-.2-1.9 0-1.3-.6-1.4a19.7 19.7 0 00-6.1 0 .8.8 0 00-.6.9c0 .2.1 1.3 0 1.4a5.7 5.7 0 01-.7 1.5l-.3.3h-.1a.8.8 0 01-.7.1 5 5 0 01-2.5-1.8h-.3a13.9 13.9 0 00-3.5 4.5c-.1.3.6.6.6.6s1.3.9 1.1 1.8a2.4 2.4 0 01-2.7 1.7h-.3a13.8 13.8 0 00.5 6 2.5 2.5 0 012.8.9c.6 1.1-.2 2-1.1 2.7a13.3 13.3 0 004.4 4.1l.5-.6a2.4 2.4 0 012.8-.9c1.2.4 1 1.4 1.1 2.3s0 .8.2.8l2.5.2a9 9 0 004.2-.7c.3-.2-.1-.8-.2-.9a1.8 1.8 0 012-2.7 5.8 5.8 0 012.5 1.4 13.9 13.9 0 003.2-3.4c-.5-.3-1.9-1.2-1.9-2.5a1.9 1.9 0 011.3-2 4.6 4.6 0 012.5 0 13.8 13.8 0 00-.1-6.3zM130 75.2a4.7 4.7 0 114.7-4.6 4.7 4.7 0 01-4.7 4.6z" fill="#69e781"/><path d="M179.1 63.8a9.3 9.3 0 00-1-3.5 7.9 7.9 0 00-9.5-3.8c-3.3 1.2-5 4.5-5.1 7.9a10.8 10.8 0 00.2 2.3c.9 5 3.8 9.4 6.9 13.3.2.2.4.5.7.4l.3-.2a22.5 22.5 0 003.7-5c2-3.4 4.1-7.4 3.8-11.4zm-7.8 4.7a3.9 3.9 0 113.9-3.9 3.9 3.9 0 01-3.9 3.9z" fill="#2bc48a"/><circle cx="220.6" cy="132.5" r="4.4" fill="#fff"/><circle cx="180" cy="167.8" r="5.3" fill="#a5b7c6"/><path d="M39.6 167l16.9-8.3-.9-2-17.1 7.7v2.6z" fill="#4949e7"/><path d="M36.9 163.5s16.4-9 17.1-8.9 3.8 1.9 2 3.1-16.6 7.7-16.6 8.4-.1 1.7-.1 1.7a6.5 6.5 0 01-2.4-1.7 2.1 2.1 0 010-2.6z" fill="#8080f1"/><path d="M39.4 166.8c-.1-.6.9-1.4 1.3-1.6l.9-.5 2.9-1.2 4.7-1.7a23.7 23.7 0 007.3-4c.3-.2-.1-.6-.4-.4-3.2 2.7-7.3 3.9-11.2 5.3-1.3.5-6.8 2-6 4.2a.2.2 0 00.4-.1zm-19.9 9.9a4.3 4.3 0 012.8 4.2c0 .6.9.6.9 0a5 5 0 00-3.4-4.9c-.4-.2-.7.6-.3.7z" fill="#3636cc"/><path d="M124.7 20.5c-4.1 1.4-4.8 8.2-.3 9.4a.5.5 0 00.3-1c-1-.4-1.7-.7-2.1-1.9a5.8 5.8 0 01-.2-2 4.2 4.2 0 012.5-3.7c.5-.2.3-.9-.2-.8zm-6.6 20.9c-.2-2.6-.5-5.1 1.4-7.1a4.1 4.1 0 013.9-1.3 13.2 13.2 0 002.9 0c.6-.1.6-1 0-1s-2.9-.3-4.3-.2a5.4 5.4 0 00-3.4 1.9c-2 2.2-1.9 5.1-1.4 7.8.1.4.8.4.8-.1zm.6 24.4c.1.4-.4 1-.7 1.2l-.8.5a3.1 3.1 0 00-1 .5c-.5.5-.5 1.7-.6 2.4s.8.9 1 .3l.2-1a4.5 4.5 0 01.2-1l.7-.2.9-.5c.8-.5 1.4-1.3 1-2.3a.4.4 0 00-.8.2zm11.8-.4c-2.5-.1-5.7 1.9-5.8 4.6a5.8 5.8 0 002.9 4.9 5.4 5.4 0 007.9-3.6 3.5 3.5 0 000-1.8 2 2 0 00-.9-1.2c-.3-.1-1-.2-1 .3a1 1 0 00.2.4c2.1 3.7-3.3 6.7-6.1 4.3-1.1-.9-2.1-2.6-1.7-4a3 3 0 011-1.5 7.2 7.2 0 013.7-1.7.4.4 0 00-.2-.7zm-14.4 7.4a1.6 1.6 0 00.6 1.6c.7.6 3-.1 2 1.8s-.6.7-.3 1.4a8.3 8.3 0 002.2 2.8.6.6 0 00.8-.8c-.7-.7-2.1-1.8-1.6-2.9s.6-.7.6-1.4a1.8 1.8 0 00-.7-1.3c-.6-.4-2.7-.2-2.6-1.2s-.8-.5-.9 0zm5.3-13a3.1 3.1 0 002.6 2.3 1.9 1.9 0 002.1-1.8.5.5 0 00-.9-.1 1 1 0 01-1.5.8 2.9 2.9 0 01-1.4-1.6c-.2-.5-.9-.1-.8.3zm11.4.3c.3 1.3 1.7 1.6 2.9 1.3a4.1 4.1 0 003-2.4c.2-.6-.7-.8-1-.3s-3.4 2.9-4.1 1.1a.4.4 0 00-.9.2z" fill="#2bc48a"/><path d="M161.7 28a34.3 34.3 0 01.4 4.5c0 .6.8.5.9 0a16.1 16.1 0 00-.5-4.6c-.1-.4-.9-.3-.8.1z" fill="#4ad295"/><path d="M170 69.2c2 .4 3.9.4 5.3-1.3a4.8 4.8 0 00.3-5.4c-2-3.4-7.3-3.9-8.8.2-.2.6.7.9 1 .4 1.5-3 5.3-2.9 6.9 0a3.7 3.7 0 010 4c-1.1 1.6-2.8 1.5-4.5 1.3s-.6.8-.1.9z" fill="#69e781"/></svg>